<svg width="17" height="25" viewBox="0 0 17 25" fill="none" xmlns="http://www.w3.org/2000/svg">
<path fill-rule="evenodd" clip-rule="evenodd" d="M4.2884 1.13751C6.94144 -0.404024 10.2025 -0.37708 12.8306 1.20809C15.4329 2.82554 17.0145 5.71221 16.9998 8.81747C16.9392 11.9024 15.2433 14.8021 13.1234 17.0438C11.8998 18.3435 10.531 19.4927 9.04502 20.468C8.89198 20.5565 8.72434 20.6158 8.55037 20.6429C8.38294 20.6357 8.21989 20.5863 8.07591 20.4989C5.80723 19.0334 3.81691 17.1628 2.20069 14.977C0.848286 13.1524 0.0799433 10.948 1.41068e-06 8.66322C-0.00175425 5.55201 1.63536 2.67904 4.2884 1.13751ZM5.82147 9.9508C6.26775 11.051 7.32113 11.7687 8.48979 11.7687C9.2554 11.7742 9.99136 11.4675 10.5337 10.917C11.076 10.3665 11.3796 9.61791 11.3769 8.83803C11.381 7.64761 10.6802 6.57209 9.60166 6.11365C8.52314 5.65521 7.27968 5.90428 6.45187 6.74456C5.62406 7.58484 5.37519 8.85059 5.82147 9.9508Z" fill="#CD1010"/>
<ellipse opacity="0.4" cx="8.50002" cy="23.0715" rx="6.07143" ry="1.21429" fill="#CD1010"/>
</svg>
